<svg width="20" height="16" viewBox="0 0 20 16" fill="none" xmlns="http://www.w3.org/2000/svg">
<g id="Group 9">
<path id="Rectangle 1 (Stroke)" fill-rule="evenodd" clip-rule="evenodd" d="M5.25113 0.501221H14.7491C15.8217 0.501205 16.6863 0.501192 17.3662 0.592613C18.0722 0.687529 18.6666 0.890585 19.1387 1.36268C19.6108 1.83478 19.8139 2.42919 19.9088 3.13517C20.0002 3.81514 20.0002 4.67971 20.0002 5.75233V10.5444C20.0002 11.617 20.0002 12.4816 19.9088 13.1615C19.8139 13.8675 19.6108 14.4619 19.1387 14.934C18.6666 15.4061 18.0722 15.6092 17.3662 15.7041C16.6863 15.7955 15.8217 15.7955 14.749 15.7955H5.25115C4.17851 15.7955 3.31393 15.7955 2.63395 15.7041C1.92797 15.6092 1.33356 15.4061 0.86146 14.934C0.389364 14.4619 0.186308 13.8675 0.0913922 13.1615C-2.88121e-05 12.4816 -1.5769e-05 11.617 4.29548e-07 10.5444V5.75235C-1.5769e-05 4.67972 -2.88121e-05 3.81515 0.0913922 3.13517C0.186308 2.42919 0.389364 1.83478 0.86146 1.36268C1.33356 0.890585 1.92797 0.687529 2.63395 0.592613C3.31393 0.501192 4.1785 0.501205 5.25113 0.501221ZM2.79071 1.7586C2.21519 1.83598 1.91043 1.97751 1.69336 2.19458C1.47629 2.41165 1.33476 2.71642 1.25738 3.29193C1.17773 3.88437 1.17648 4.66956 1.17648 5.79539V10.5013C1.17648 11.6271 1.17773 12.4123 1.25738 13.0048C1.33476 13.5803 1.47629 13.8851 1.69336 14.1021C1.91043 14.3192 2.21519 14.4607 2.79071 14.5381C3.38315 14.6178 4.16834 14.619 5.29417 14.619H14.706C15.8319 14.619 16.617 14.6178 17.2095 14.5381C17.785 14.4607 18.0898 14.3192 18.3068 14.1021C18.5239 13.8851 18.6654 13.5803 18.7428 13.0048C18.8225 12.4123 18.8237 11.6271 18.8237 10.5013V5.79539C18.8237 4.66956 18.8225 3.88437 18.7428 3.29193C18.6654 2.71642 18.5239 2.41165 18.3068 2.19458C18.0898 1.97751 17.785 1.83598 17.2095 1.7586C16.617 1.67895 15.8319 1.6777 14.706 1.6777H5.29417C4.16834 1.6777 3.38315 1.67895 2.79071 1.7586Z" fill="#DF0000"/>
<path id="Vector 3 (Stroke)" fill-rule="evenodd" clip-rule="evenodd" d="M8.68477 9.32484L0.325195 5.14505L0.851334 4.09277L9.21091 8.27256C9.70773 8.52097 10.2925 8.52097 10.7893 8.27256L19.1489 4.09277L19.675 5.14505L11.3155 9.32484C10.4874 9.73885 9.5128 9.73885 8.68477 9.32484Z" fill="#DF0000"/>
</g>
</svg>
