<svg width="19" height="23" viewBox="0 0 19 23" fill="none" xmlns="http://www.w3.org/2000/svg">
<g id="Group 2874">
<g id="Group 2873">
<g id="Group 2871">
<g id="Group 2872">
<path id="Vector" d="M9.53685 0.758301C4.70193 0.758301 0.769531 4.6907 0.769531 9.52562C0.769531 10.1058 0.833997 10.686 0.930695 11.2662C0.930695 11.2984 0.930695 11.3629 0.962928 11.3951C1.92991 15.7143 8.73103 22.2253 9.02112 22.5154C9.18229 22.6444 9.37568 22.7411 9.56908 22.7411C9.76248 22.7411 9.95588 22.6766 10.117 22.5154C10.4071 22.2253 17.1438 15.7465 18.1108 11.4918C18.1108 11.4596 18.1108 11.4274 18.143 11.3629C18.2719 10.7505 18.3364 10.138 18.3364 9.49339C18.3042 4.6907 14.3718 0.758301 9.53685 0.758301ZM16.5958 11.105V11.1695C15.8867 14.3283 11.1807 19.2599 9.56908 20.8716C7.95744 19.2599 3.25146 14.3283 2.5101 11.105V11.0083C2.4134 10.5248 2.34894 10.0413 2.34894 9.52562C2.34894 5.56099 5.57222 2.30547 9.56908 2.30547C13.5659 2.30547 16.7892 5.52875 16.7892 9.52562C16.757 10.0736 16.6925 10.5893 16.5958 11.105Z" fill="#DF0000"/>
<path id="Vector_2" d="M9.53572 5.6897C7.92408 5.6897 6.60254 7.01124 6.60254 8.62288C6.60254 10.2345 7.92408 11.5561 9.53572 11.5561C11.1474 11.5561 12.4689 10.2345 12.4689 8.62288C12.4689 7.01124 11.1474 5.6897 9.53572 5.6897ZM9.53572 10.0089C8.76214 10.0089 8.14971 9.39647 8.14971 8.62288C8.14971 7.84929 8.76214 7.23687 9.53572 7.23687C10.3093 7.23687 10.9217 7.84929 10.9217 8.62288C10.9217 9.39647 10.3093 10.0089 9.53572 10.0089Z" fill="#DF0000"/>
</g>
</g>
</g>
</g>
</svg>
